PathFileType	4	(X/Y/Z)	C:/Users/opensim2020/Desktop/walking_exp_matlab/subject03_walking07_straight_04.trc	
DataRate	CameraRate	NumFrames	NumMarkers	Units	OrigDataRate	OrigDataStartFrame	OrigNumFrames	
100.00	100.00	9	46	mm	100.00	3025	265	
Frame#	Time	LFHD			RFHD			LBHD			RBHD			C7			T10			CLAV			STRN			RBAK			LSHO			LUPA			LELB			LFRM			LWRA			LWRB			LFIN			RSHO			RUPA			RELB			RFRM			RWRA			RWRB			RFIN			LASI			RASI			LPSI			RPSI			LTHI			LKNE			LTIB			LANK			LHEE			LTOE			RTHI			RKNE			RTIB			RANK			RHEE			RTOE			*39			*40			*41			*42			*43			*44			*45			
		X1	Y1	Z1	X2	Y2	Z2	X3	Y3	Z3	X4	Y4	Z4	X5	Y5	Z5	X6	Y6	Z6	X7	Y7	Z7	X8	Y8	Z8	X9	Y9	Z9	X10	Y10	Z10	X11	Y11	Z11	X12	Y12	Z12	X13	Y13	Z13	X14	Y14	Z14	X15	Y15	Z15	X16	Y16	Z16	X17	Y17	Z17	X18	Y18	Z18	X19	Y19	Z19	X20	Y20	Z20	X21	Y21	Z21	X22	Y22	Z22	X23	Y23	Z23	X24	Y24	Z24	X25	Y25	Z25	X26	Y26	Z26	X27	Y27	Z27	X28	Y28	Z28	X29	Y29	Z29	X30	Y30	Z30	X31	Y31	Z31	X32	Y32	Z32	X33	Y33	Z33	X34	Y34	Z34	X35	Y35	Z35	X36	Y36	Z36	X37	Y37	Z37	X38	Y38	Z38	X39	Y39	Z39	X40	Y40	Z40	X41	Y41	Z41	X42	Y42	Z42	X43	Y43	Z43	X44	Y44	Z44	X45	Y45	Z45	X46	Y46	Z46	

67	0.660	-931.99463	424.02365	1588.38257	-1064.26465	436.22351	1595.22705	-924.80847	556.10229	1558.30859	-1055.62512	563.01886	1564.05908	-982.12787	605.30365	1400.38391	-984.00507	655.41254	1087.23877	-990.47101	490.18149	1315.33337	-981.63525	455.36206	1149.12305	-1072.05994	672.84607	1223.95227	-834.72601	518.58374	1356.42822	-755.69775	485.26901	1171.11829	-742.75061	440.24228	1057.65857	-758.83624	357.27563	961.97711	-806.31952	284.92969	876.58533	-753.50751	298.35931	864.50739	-773.16132	237.53078	811.92853	-1147.71289	543.54962	1339.17444	-1215.45459	576.82361	1117.62415	-1228.29968	579.68365	1004.66302	-1229.30249	584.14679	867.51837	-1196.03540	564.25555	769.51776	-1236.22717	600.85303	768.11841	-1226.05188	586.04968	694.98639	-859.46881	495.93378	921.91040	-1098.92554	480.94205	921.05444	-922.49194	654.30005	943.40106	-1070.18726	645.04993	945.37366	-826.19482	596.62579	628.73566	-860.11847	633.03107	452.49265	-857.87054	743.68829	285.64923	-897.29449	833.02911	93.14435	-932.60986	882.31348	69.30071	-922.54919	694.19403	28.90572	-1149.78442	474.99268	630.44934	-1113.58643	399.80130	466.27856	-1122.92383	383.11633	281.03607	-1084.44678	328.92566	68.62344	-1029.74133	360.18433	28.00138	-1068.91443	183.02554	59.37462	-974.37762	506.19388	1661.70471																		 
68	0.670	-933.36829	413.77948	1588.21765	-1065.66150	425.84158	1595.00500	-926.24512	545.79053	1558.19238	-1057.07092	552.68445	1563.89453	-983.58478	595.16730	1400.17859	-985.23547	644.40948	1086.75452	-991.67438	479.77798	1315.25391	-982.73962	444.58923	1149.15076	-1073.54590	662.21362	1223.56384	-835.98639	508.66992	1356.46057	-756.98669	476.54730	1170.88452	-743.99860	431.78488	1057.21729	-760.04755	348.77963	961.76453	-807.53522	276.00244	876.91956	-755.02399	289.55765	864.51813	-774.77350	228.53444	812.29608	-1149.01050	533.04865	1338.94580	-1216.58301	566.12469	1117.39331	-1229.31702	568.91583	1004.39624	-1230.23975	573.48895	867.24060	-1196.62122	554.09955	769.00421	-1237.18689	590.26385	767.84021	-1227.00769	575.54926	694.62738	-860.73096	484.84406	921.40674	-1100.18140	469.37546	921.35291	-923.96899	643.21442	943.08789	-1071.63403	633.65454	945.41919	-826.88593	586.66699	628.66394	-859.98859	623.74835	452.43430	-857.79785	737.71289	287.34409	-896.95154	830.79694	96.74724	-932.45471	880.38171	74.06902	-922.43713	693.71710	28.75810	-1149.74329	463.04251	630.73694	-1113.34058	390.47455	465.45853	-1121.91284	377.23688	279.33829	-1083.11365	326.35651	66.92584	-1028.23645	359.26846	28.27701	-1066.67554	180.81207	50.86598																					 
69	0.680	-934.74030	403.24435	1588.50867	-1067.12476	415.28271	1595.14783	-927.74353	535.44489	1558.37231	-1058.62561	542.20258	1564.01648	-985.16449	585.12476	1400.30652	-986.66565	633.22046	1086.55310	-993.00159	469.35770	1315.48779	-983.97015	433.73792	1149.66748	-1074.93481	651.50317	1223.32336	-837.24036	498.69968	1356.67371	-758.24524	467.66382	1170.70422	-745.27856	423.64517	1056.86523	-761.35010	340.62680	961.58118	-808.89270	267.54752	877.04315	-756.47900	281.42682	864.27753	-776.23535	220.10890	812.29749	-1150.52808	522.52490	1339.09802	-1217.83813	555.23157	1117.33093	-1230.44788	557.94708	1004.27142	-1231.28833	562.53912	867.13666	-1197.48254	543.40442	768.72217	-1238.15515	579.35059	767.68109	-1227.88721	564.76672	694.48511	-861.68842	473.53067	921.14288	-1101.42725	457.75421	921.85638	-925.61768	631.98364	942.88080	-1073.28723	621.99823	945.73029	-827.61273	576.15295	628.54694	-859.95880	613.90063	452.46130	-857.70471	731.16284	289.22601	-896.48901	828.13605	100.74508	-931.86310	878.85046	80.08701	-922.48492	693.30231	28.78826	-1149.86316	451.71103	631.69562	-1113.14502	382.24704	465.10202	-1120.92664	371.29236	278.77429	-1083.43433	321.54071	66.82925	-1028.89331	356.99142	30.35207	-1064.35205	176.50529	43.14824	-975.86475	481.03601	1663.00818																		 
70	0.690	-936.12958	392.70352	1589.11389	-1068.50842	404.62372	1595.79895	-929.27991	524.87860	1559.13831	-1060.15063	531.52930	1564.71753	-986.84137	574.87317	1400.76294	-988.02411	621.94739	1086.83228	-994.35358	459.01950	1316.27454	-985.15619	422.90472	1150.60144	-1076.30872	640.79517	1223.46790	-838.54840	488.86371	1357.36206	-759.64868	458.98965	1170.67737	-746.53833	415.87854	1056.62756	-762.56433	332.76712	961.35474	-810.17767	259.55948	876.89380	-757.93799	273.89227	863.92603	-777.66528	212.39743	811.99182	-1151.98938	511.92221	1339.28308	-1219.13342	544.07336	1117.40356	-1231.73340	546.68286	1004.33502	-1232.44836	551.22314	867.19385	-1198.18152	532.59607	768.55017	-1239.24524	568.00183	767.75549	-1228.85083	553.49597	694.53571	-862.79480	462.19327	921.10614	-1102.66943	446.00021	922.59747	-927.22394	620.54285	942.91870	-1074.97449	609.92291	946.35706	-828.35114	565.04315	628.60669	-859.87000	603.20795	452.43576	-857.63660	723.81250	291.36514	-896.24377	824.95276	105.38159	-931.70313	875.45306	85.64660	-922.57471	692.81421	28.83948	-1150.09412	440.88901	632.97833	-1113.55811	374.78171	465.27014	-1121.73462	364.13730	279.24786	-1083.73669	316.32462	66.77396	-1030.40735	354.54559	32.03012	-1062.58923	172.01811	39.70242	-976.89478	471.29126	1664.55237																		 
71	0.700	-937.58545	382.07907	1590.00500	-1069.98730	393.79019	1596.61182	-930.83734	514.27209	1560.34338	-1061.67981	520.79187	1565.92529	-988.55286	564.43719	1401.70190	-989.07184	610.72876	1087.43140	-995.75958	448.53876	1317.37158	-986.43683	411.98373	1151.78223	-1077.81750	630.04218	1223.93506	-839.78845	478.79556	1358.30713	-761.04065	450.40607	1170.96326	-747.90558	407.97549	1056.56714	-763.88824	325.28778	960.95355	-811.43671	252.08803	876.60797	-759.34021	266.64908	863.43958	-778.91925	205.34761	811.43805	-1153.58032	501.26263	1339.94653	-1220.48462	532.67810	1117.80859	-1233.06287	535.01996	1004.66644	-1233.62830	539.46301	867.54297	-1199.27356	520.96960	768.81647	-1240.46179	556.18372	768.08539	-1229.99280	541.77472	694.89221	-863.89203	450.63205	921.42072	-1103.91064	434.14667	923.77325	-928.78821	608.95203	943.22839	-1076.58533	597.93195	947.66547	-829.08716	553.19714	628.72510	-859.58185	591.51343	452.50046	-857.57532	715.79071	293.69000	-896.05981	821.37488	110.34506	-931.63715	872.32794	92.54691	-922.61578	692.42188	28.71920	-1150.72937	430.88980	634.21979	-1114.41589	367.17401	465.43518	-1123.13562	356.58469	279.63748	-1083.63855	312.19870	66.54301	-1030.91980	352.50940	33.54285	-1063.83777	168.43303	36.92013	-980.44824	463.22342	1663.87488																		 
72	0.710	-939.11169	371.35956	1590.97729	-1071.43433	382.95395	1597.67554	-932.45709	503.66281	1561.74011	-1063.31299	510.00339	1567.31885	-990.26556	553.81036	1402.93530	-990.10956	599.44287	1088.31604	-997.22760	438.00095	1318.64856	-987.73932	400.92188	1153.28931	-1079.43848	619.23120	1224.74036	-841.07007	468.67847	1359.52820	-762.50299	441.84467	1171.58069	-749.08905	401.14911	1056.93970	-765.13184	318.20428	960.65643	-812.58759	245.20233	876.14093	-760.62549	260.41394	862.80115	-780.00793	199.05246	810.62109	-1155.13525	490.60718	1340.99927	-1222.06592	521.16278	1118.61108	-1234.34692	523.03412	1005.35162	-1234.82935	527.35760	868.23083	-1200.40784	508.84732	769.53650	-1241.67346	543.96283	768.72968	-1230.90527	529.72986	695.48889	-865.13617	439.04068	921.88361	-1105.14478	422.32098	925.40906	-930.22833	597.30341	943.76385	-1078.00562	586.18396	949.49640	-829.65167	540.77826	628.89697	-859.17981	578.96283	452.47595	-857.50269	707.13354	296.27972	-895.94489	817.08716	115.92905	-931.75580	868.14905	99.96281	-922.64673	692.18604	28.38181	-1151.63354	421.68848	635.73669	-1115.02698	359.12006	466.15308	-1123.75574	349.67987	280.01279	-1082.73633	310.17844	66.49570	-1030.76978	351.50555	34.07220	-1064.93372	166.56360	34.88621	-981.94086	451.41708	1665.24939																		 
73	0.720	-940.56836	360.69916	1592.20349	-1072.92871	372.03433	1598.82861	-934.11505	492.99472	1563.25940	-1064.97205	499.21136	1568.82007	-991.97534	543.27649	1404.39880	-991.37158	588.34460	1089.48328	-998.58899	427.44507	1320.18201	-988.98853	389.84402	1155.01672	-1081.12427	608.35840	1225.77026	-842.45789	458.53253	1361.05566	-764.09283	433.28333	1172.55444	-750.94910	392.77576	1057.29053	-766.45258	311.49707	960.52301	-813.70148	238.85533	875.51208	-761.87006	254.87730	862.10394	-780.95990	193.45984	809.63586	-1156.61145	479.78400	1342.27661	-1223.40906	509.23517	1119.69312	-1235.58875	510.70834	1006.36652	-1236.06128	514.80969	869.29468	-1201.64612	496.69275	770.30188	-1242.99902	531.24811	769.69165	-1232.08594	517.13013	696.44220	-866.48822	427.30109	922.67340	-1106.35315	410.56555	927.62189	-931.43164	585.60211	944.55957	-1079.22766	574.67316	951.70355	-830.15906	527.74707	629.06274	-858.59369	565.27374	452.42145	-857.34869	697.46423	299.00748	-895.96112	811.84747	122.00487	-932.08289	863.17670	108.34884	-922.77728	691.59875	28.29155	-1152.82837	412.73129	637.43652	-1115.49719	350.42688	467.34305	-1124.38342	343.42145	280.58176	-1081.98633	309.09427	66.56255	-1030.55701	351.37900	34.12172	-1063.35059	165.90646	33.92894	-983.31921	438.58539	1666.79712																		 
74	0.730	-942.05609	350.01288	1593.60852	-1074.42957	361.15631	1600.11206	-935.76642	482.33142	1564.93274	-1066.60828	488.31009	1570.39136	-993.57465	532.81207	1405.94702	-992.66711	577.35876	1090.76355	-999.92841	416.92755	1321.88184	-990.20343	378.84344	1156.84851	-1082.85938	597.51697	1227.01367	-843.87042	448.30481	1362.86169	-765.75110	424.78732	1173.82520	-752.38885	386.49518	1058.23340	-767.83392	305.05594	960.44299	-814.68408	233.04509	874.76068	-763.04431	249.60367	861.38190	-781.73914	188.58093	808.41498	-1158.10669	468.92786	1343.82861	-1224.53247	497.04099	1120.94702	-1236.79321	498.06726	1007.67871	-1237.38953	501.87048	870.61688	-1202.79138	483.78653	771.60675	-1244.38867	518.09039	770.95892	-1233.26245	504.10284	697.62573	-868.10736	415.56854	923.64020	-1107.72229	398.98514	930.12396	-932.47882	573.87170	945.62122	-1080.25757	563.29559	954.23602	-830.58728	514.10724	629.19653	-857.64557	550.39752	452.33459	-857.10724	686.64954	301.91476	-896.40656	805.53583	128.47942	-932.98694	856.62427	117.22618	-923.02277	690.85449	28.22286	-1153.97107	403.48267	639.49683	-1115.79211	341.80444	468.84311	-1124.87158	337.96307	281.40799	-1081.66943	308.61487	66.92719	-1030.68762	351.36154	34.16242	-1061.79419	165.46799	33.60550	-985.01508	427.74933	1668.19885																		 
75	0.740	-943.61719	339.23679	1595.12500	-1075.92822	350.24258	1601.49414	-937.42999	471.74155	1566.83704	-1068.27319	477.49524	1572.06616	-995.19507	522.50494	1407.58813	-993.86157	566.49677	1092.23242	-1001.30389	406.53601	1323.73291	-991.49426	367.81815	1159.00342	-1084.60400	586.68634	1228.40137	-845.29773	438.16916	1364.89636	-767.47626	416.27872	1175.36804	-754.29053	379.33267	1059.22693	-769.21814	299.02737	960.43994	-815.59912	227.77904	873.90051	-764.14954	244.90213	860.60376	-782.41516	184.41133	806.90009	-1159.44849	458.09631	1345.59119	-1225.86182	484.81250	1122.49390	-1237.99316	485.19580	1009.23175	-1238.67310	488.43427	872.02405	-1204.05225	470.41373	773.19476	-1245.88098	504.48596	772.48065	-1234.51868	490.55969	699.02942	-869.82159	403.83865	924.83655	-1109.17480	387.69577	932.79321	-933.38464	562.16174	946.84424	-1081.08228	552.00903	956.87988	-830.85944	499.88626	629.31409	-856.28662	534.26672	452.11246	-856.75208	674.69897	304.93683	-897.05988	798.21411	135.59215	-934.41235	848.79065	127.13271	-923.31946	689.77545	28.23894	-1155.15918	393.67722	641.72211	-1116.31335	333.53934	470.48520	-1125.19873	333.51053	282.34760	-1081.66125	308.42548	67.14588	-1030.77783	351.40524	34.24582	-1062.00366	165.40352	33.42238																					 
